<svg xmlns="http://www.w3.org/2000/svg" width="322" height="322" fill="none" viewBox="0 0 322 322"><path fill="#000" d="M0 0h322v322H0z"/><path fill="#fff" d="M214.444 281.894c-9.963 0-17.117-7.422-17.117-17.652 0-10.163 7.154-17.518 16.849-17.518s16.917 7.355 16.917 17.518c0 .535-.067 1.337-.134 2.006h-25.943c.736 5.482 4.614 9.294 9.695 9.294 3.611 0 6.954-1.939 8.626-4.815l6.017 3.878c-3.009 4.347-8.826 7.289-14.91 7.289m-9.093-21.33h17.718c-1.203-4.48-4.613-7.488-8.893-7.488-4.279 0-7.622 3.008-8.825 7.488m-22.824 21.217v-34.18h7.754v36.012c0 4.723-.916 8.177-2.819 10.221-2.186 2.467-5.217 3.666-9.094 3.666l-2.114-6.979q3.489 0 4.864-1.903c.916-1.339 1.409-3.595 1.409-6.837m8.733-46.945a4.871 4.871 0 1 1-9.743.001 4.871 4.871 0 0 1 9.743-.001m49.141-.001h7.756v12.758h6.754v6.352h-6.754v27.079h-7.756v-27.079h-5.46v-6.352h5.46z"/><path fill="#fff" fill-rule="evenodd" d="m75.014 281.024 6.27-12.694h23.84l6.194 12.694h8.089l-26.203-53.605L67 281.024zm9.52-19.334 8.67-17.667 8.669 17.667z" clip-rule="evenodd"/><path fill="#fff" d="M175.097 259.009c-2.427-3.095-5.357-5.604-10.83-5.604-5.683 0-9.829 4.552-9.829 10.904 0 6.285 4.146 10.898 9.829 10.898 5.473 0 8.403-2.567 10.83-5.655v8.796c-2.915 2.233-6.628 3.546-10.83 3.546-10.096 0-17.384-7.422-17.384-17.585 0-10.23 7.288-17.585 17.384-17.585 4.187 0 7.92 1.273 10.83 3.493zm-43.45 22.015h-7.737v-33.415h7.737v3.202c1.49-1.67 2.73-2.646 3.738-3.121a9.3 9.3 0 0 1 4.058-.924c1.547 0 4.16.632 6.341 1.969l-3.517 7.033c-1.477-1.055-2.884-1.547-4.29-1.547q-6.33 0-6.33 9.495z"/><path fill="#fff" fill-rule="evenodd" d="M254.5 118c0 48.078-44.305 87.977-91.964 88h-.082q-.349 0-.697-.003C210.01 205.59 249 166.349 249 118s-38.99-87.59-87.243-87.997l.738-.003c47.675 0 92.005 39.908 92.005 88" clip-rule="evenodd"/><path fill="#fff" d="M179.06 108.045c11.824 3.022 21.598 5.444 41.94 9.955-20.342 4.511-30.116 6.933-41.94 9.955a11.24 11.24 0 0 0-8.106 8.105c-3.021 11.821-5.443 21.599-9.954 41.94-4.511-20.341-6.933-30.119-9.954-41.94a11.24 11.24 0 0 0-8.106-8.105c-11.824-3.022-21.598-5.444-41.94-9.955 20.342-4.511 30.116-6.933 41.94-9.955a11.24 11.24 0 0 0 8.106-8.105C154.067 88.12 156.489 78.341 161 58c4.511 20.341 6.933 30.119 9.954 41.94a11.24 11.24 0 0 0 8.106 8.105"/></svg>