<svg width="453" height="157" viewBox="0 0 453 157" fill="none" xmlns="http://www.w3.org/2000/svg">
<path fill-rule="evenodd" clip-rule="evenodd" d="M45.7521 81.0418C44.4641 81.1741 43.207 81.3033 42 81.4399C43.207 81.5766 44.4641 81.7058 45.7521 81.8381C55.0368 82.7919 65.9287 83.9108 71.2289 89.211C76.5286 94.5107 77.6475 105.401 78.6015 114.685C78.7339 115.974 78.8632 117.232 79 118.44C79.1368 117.232 79.2661 115.974 79.3985 114.685C80.3525 105.401 81.4714 94.5107 86.7711 89.211C92.0713 83.9108 102.963 82.7919 112.248 81.8381C113.536 81.7058 114.793 81.5766 116 81.4399C114.793 81.3033 113.536 81.1741 112.248 81.0418C102.963 80.088 92.0713 78.9691 86.7711 73.6689C81.4714 68.3692 80.3525 57.4792 79.3985 48.1949C79.2661 46.9059 79.1368 45.6478 79 44.4399C78.8632 45.6478 78.7339 46.9059 78.6015 48.1949C77.6475 57.4792 76.5286 68.3692 71.2289 73.6689C65.9287 78.9691 55.0368 80.088 45.7521 81.0418Z" fill="black"/>
<path d="M348.081 109.399C334.291 109.399 324.389 99.1263 324.389 84.9667C324.389 70.8996 334.291 60.7195 347.711 60.7195C361.13 60.7195 371.125 70.8996 371.125 84.9667C371.125 85.7071 371.032 86.8176 370.94 87.7431H335.032C336.05 95.3319 341.417 100.607 348.451 100.607C353.449 100.607 358.076 97.9232 360.39 93.9437L368.719 99.3114C364.554 105.327 356.503 109.399 348.081 109.399ZM335.495 79.8766H360.019C358.354 73.676 353.634 69.5114 347.711 69.5114C341.788 69.5114 337.16 73.676 335.495 79.8766Z" fill="black"/>
<path d="M303.904 109.243V61.9333H314.637V111.78C314.637 118.316 313.368 123.097 310.734 125.927C307.709 129.341 303.514 131 298.148 131L295.221 121.341C298.441 121.341 300.685 120.463 301.953 118.707C303.221 116.853 303.904 113.731 303.904 109.243Z" fill="black"/>
<path d="M315.992 44.8469C315.992 48.5708 312.973 51.5896 309.249 51.5896C305.525 51.5896 302.507 48.5708 302.507 44.8469C302.507 41.1231 305.525 38.1043 309.249 38.1043C312.973 38.1043 315.992 41.1231 315.992 44.8469Z" fill="black"/>
<path d="M384.009 43.4133H394.745V61.9226H404.092V70.7145H394.745V108.196H384.009V70.7145H376.451V61.9226H384.009V43.4133Z" fill="black"/>
<path fill-rule="evenodd" clip-rule="evenodd" d="M155.092 108.196L163.772 90.6247H196.768L205.342 108.196H216.538L180.269 34L144 108.196H155.092ZM168.269 81.4354L180.269 56.9819L192.269 81.4354H168.269Z" fill="black"/>
<path d="M293.62 77.7235C290.261 73.4403 286.205 69.9675 278.63 69.9675C270.764 69.9675 265.026 76.2673 265.026 85.0592C265.026 93.7586 270.764 100.144 278.63 100.144C286.205 100.144 290.261 96.591 293.62 92.3174V104.491C289.585 107.582 284.445 109.399 278.63 109.399C264.655 109.399 254.568 99.1263 254.568 85.0592C254.568 70.8996 264.655 60.7195 278.63 60.7195C284.426 60.7195 289.592 62.4819 293.62 65.5547V77.7235Z" fill="black"/>
<path d="M233.479 108.196H222.77V61.9454H233.479V66.3767C235.542 64.0652 237.259 62.714 238.654 62.0568C240.304 61.2791 242.129 60.7774 244.27 60.7774C246.412 60.7774 250.029 61.6533 253.046 63.503L248.179 73.238C246.135 71.7777 244.188 71.0963 242.241 71.0963C236.4 71.0963 233.479 75.477 233.479 84.2386V108.196Z" fill="black"/>
</svg>
